Description

Sinopse e detalhes

Blu (Jesse Eisenberg) é uma arara azul que nasceu no Rio de Janeiro mas, capturada na floresta, foi parar na fria Minnesota, nos Estados Unidos. Lá é criada por Linda (Leslie Mann), com quem tem um forte laço afetivo. Um dia, Túlio (Rodrigo Santoro) entra na vida de ambos. Ornitólogo, ele diz que Blu é o último macho da espécie e deseja que ele acasale com a única fêmea viva, que está no Rio de Janeiro. Linda e Blu partem para a cidade maravilhosa, onde conhecem Jade (Anne Hathaway). Só que ela é um espírito livre e detesta ficar engaiolada, batendo de frente com Blu logo que o conhece. Quando o casal é capturado por uma quadrilha de venda de aves raras, eles ficam presos por uma corrente na pata. É quando precisam unir forças para escapar do cativeiro.

Format : AVI
Format/Info : Audio Video Interleave
Format profile : OpenDML
File size : 1.55 GiB
Duration : 1h 35mn
Overall bit rate mode : Variable
Overall bit rate : 2 317 Kbps
Writing application : Lavf52.84.0

Video
ID : 0
Format : AVC
Format/Info : Advanced Video Codec
Format profile : High@L3.1
Format settings, CABAC : Yes
Format settings, ReFrames : 1 frame
Format settings, GOP : M=1, N=15
Codec ID : H264
Duration : 1h 35mn
Bit rate mode : Variable
Bit rate : 2 145 Kbps
Maximum bit rate : 3 216 Kbps
Width : 1 280 pixels
Height : 720 pixels
Display aspect ratio : 16:9
Frame rate : 23.976 fps
Color space : YUV
Chroma subsampling : 4:2:0
Bit depth : 8 bits
Scan type : Progressive
Bits/(Pixel*Frame) : 0.097
Stream size : 1.44 GiB (93%)

Audio
ID : 1
Format : AC-3
Format/Info : Audio Coding 3
Mode extension : CM (complete main)
Format settings, Endianness : Big
Codec ID : 2000
Duration : 1h 35mn
Bit rate mode : Constant
Bit rate : 160 Kbps
Channel(s) : 2 channels
Channel positions : Front: L R
Sampling rate : 48.0 KHz
Bit depth : 16 bits
Compression mode : Lossy
Stream size : 110 MiB (7%)
Alignment : Aligned on interleaves
Interleave, duration : 32 ms (0.77 video frame)